<svg xmlns="http://www.w3.org/2000/svg" width="136" height="46" viewBox="0 0 136 46">
    <g fill="none" fill-rule="nonzero">
        <path fill="#FFFFFF" d="M59.612.622a1.847 1.847 0 0 0-1.761-.544 1.852 1.852 0 0 0-1.282 1.048 1.842 1.842 0 0 0 .072 1.651.915.915 0 0 1 .104.765v.008l-1.47 4.604v.008a.92.92 0 0 1-.68.62l-.032.008-8.42 1.78-1.73.368a.917.917 0 0 0-.65.512l-.027.065-.675 1.594-3.717 8.767v.007a.01.01 0 0 1 0 .006l-.063.15a.928.928 0 0 1-.44.409h-.005l-.15.05-4.558 1.513-.78.258-1.848.616-1.85.613-.36.12-.092.031a.02.02 0 0 1-.01 0 .927.927 0 0 1-.62-.05l-.188-.112-.58-.346h-.004l-4.982-2.982-1.544-.925-1.296-.774-.01-.004a.747.747 0 0 0-.143-.073l-.06-.022-.046-.013-.046-.011-.048-.01c-.016 0-.032-.004-.048-.005h-.192c-.014 0-.03 0-.046.006l-.046.009a.855.855 0 0 0-.17.053l-.075.035h-.004l-.083.046-1.274.763-1.536.919-4.992 2.986-.49.294a.957.957 0 0 1-.284.116l-.033.007a.944.944 0 0 1-.531-.057h-.004l-.144-.076a.064.064 0 0 0-.01-.006l-5.428-2.842-.032-.016-.097-.051-.019-.012a.924.924 0 0 1-.388-.54 1.85 1.85 0 0 0-2.014-1.404A1.846 1.846 0 0 0 .045 22.38v.046c.014.594.315 1.144.807 1.479a1.857 1.857 0 0 0 1.676.21.938.938 0 0 1 .695.017h.006l.125.067h.004l5.387 2.82.125.066a.936.936 0 0 1 .28.281c.012.018.022.037.033.056.06.108.096.227.107.35V37.84a.92.92 0 0 0 .409.764l.083.048.178.107 1.185.708 4.998 2.98 1.532.915 1.22.733.21.124a.933.933 0 0 0 .717.002l.217-.13 1.211-.723 1.541-.915 4.997-2.984.655-.391a.923.923 0 0 1 .699-.117l.166.057.011.004.314.103 1.85.616 6.06 2.002a.921.921 0 0 1 .586.545 1.851 1.851 0 0 0 3.539-.751 1.698 1.698 0 0 0-.042-.382v-.069c0-.205.068-.405.196-.566l.02-.026 1.388-1.728 1.222-1.524.257-.32 1.594-1.981.925-1.156.44-.55.237-.294.096-.121a.92.92 0 0 0 0-1.015l-.099-.12v-.004l-.236-.294-.441-.55-.925-1.152-1.85-2.306-1.222-1.523-.63-.783-.85-1.06-.376-.469-.108-.134-.073-.091a.915.915 0 0 1-.098-.834l.033-.072 3.955-9.332a.922.922 0 0 1 .627-.534l.073-.016 8.68-1.838 1.516-.321.056-.012a.92.92 0 0 0 .663-.623l.481-1.504 1.309-4.096V4.13a.927.927 0 0 1 .521-.57 1.838 1.838 0 0 0 .6-2.938h.005zM27.793 36.794a.922.922 0 0 1-.407.765l-.082.048-7.31 4.372h-.003l-.083.052-.01.004a.927.927 0 0 1-.869 0h-.004l-.088-.052-7.37-4.412a.922.922 0 0 1-.423-.714v-9.051c0-.308.152-.595.408-.767l.076-.045.455-.27 6.867-4.102.083-.046a.928.928 0 0 1 .958.045l7.275 4.347.008.004.153.092h.004a.918.918 0 0 1 .362.633v9.097zm14.551-9.093l.255.319 1.224 1.525.626.78 1.077 1.348.106.13a.92.92 0 0 1-.062 1.09h-.005l-.011.016-1.11 1.382-.626.782-1.22 1.528-.257.32-1.479 1.844-.466.578a.913.913 0 0 1-.674.351 1.85 1.85 0 0 0-.856.26.914.914 0 0 1-.717.051l-.02-.007-3.717-1.235-1.065-.353-1.849-.616-1.188-.395-.015-.006-.037-.012a.92.92 0 0 1-.61-.865v-8.41a.923.923 0 0 1 .654-.882l.02-.006 1.171-.391 1.849-.615 1.068-.355.783-.26 1.853-.615 1.14-.378.685-.228a.928.928 0 0 1 1.017.27c.016.019.033.038.046.057l.142.176.671.836.115.142 1.482 1.844z"/>
        <path fill="#FFFFFF" d="M72.05 20.432c.194 0 .272.115.291.29l1.261 14.06c.02.193-.097.29-.29.29h-1.398c-.194 0-.272-.097-.29-.29l-.893-10.984-4.193 10.557a.34.34 0 0 1-.349.233h-1.38c-.194 0-.31-.078-.369-.233l-4.189-10.559-.893 10.984c-.019.193-.096.29-.29.29h-1.38c-.193 0-.31-.097-.29-.29l1.243-14.04c.019-.193.097-.31.29-.31h1.515c.466 0 .58.194.795.755l4.25 10.984 4.25-10.984c.214-.561.332-.754.796-.754h1.513zM78.085 21.399c0 .735-.388 1.141-1.145 1.141-.738 0-1.145-.406-1.145-1.141s.407-1.122 1.145-1.122c.757 0 1.145.387 1.145 1.122zm-.505 3.094c.194 0 .291.097.291.29v9.999c0 .193-.097.29-.29.29h-1.282c-.194 0-.29-.097-.29-.29v-9.999c0-.193.096-.29.29-.29h1.281zM89.36 28.921v5.864c0 .193-.135.29-.331.29h-1.243c-.194 0-.291-.097-.291-.29v-5.71c0-2.958-.58-3.055-2.446-3.055h-2.658v8.762c0 .193-.097.29-.291.29h-1.282c-.193 0-.29-.097-.29-.29v-9.767c0-.248.097-.27.29-.31 1.515-.29 3.106-.31 4.037-.31 3.477 0 4.506.427 4.506 4.526zM100.229 20.45c.194 0 .29.097.29.29v13.792c0 .213-.115.29-.31.31-1.708.27-2.582.33-4.037.33-3.765 0-4.522-1.063-4.522-5.357 0-4.294.757-5.415 4.425-5.415.863-.009 1.725.037 2.582.135v-3.79c0-.194.097-.29.29-.29l1.282-.004zm-4.037 5.57c-2.403 0-2.679.735-2.679 3.771 0 2.978.25 3.752 2.66 3.752a21.684 21.684 0 0 0 2.485-.155V26.02h-2.466zM115.115 27.742c0 5.24-1.65 7.426-6.036 7.426-1.708 0-3.959-.039-5.337-.135-.233-.02-.29-.058-.29-.271V20.76c0-.232.057-.27.29-.29 1.378-.096 3.63-.135 5.337-.135 4.386 0 6.036 2.204 6.036 7.407zm-9.705-5.686v11.391h3.668c2.97 0 4.056-1.682 4.056-5.705 0-3.964-1.164-5.686-4.327-5.686h-3.397zM126.196 29.792c0 4.312-.757 5.376-4.503 5.376s-4.522-1.064-4.522-5.376c0-4.313.777-5.395 4.522-5.395s4.503 1.082 4.503 5.395zm-7.162 0c0 2.998.291 3.752 2.66 3.752 2.348 0 2.639-.754 2.639-3.752 0-3.017-.291-3.771-2.64-3.771-2.367 0-2.659.754-2.659 3.77zM135.686 24.57c.175.019.272.135.272.33v.832c0 .193-.097.29-.291.29h-2.93c-2.349 0-2.64.754-2.64 3.77 0 2.998.29 3.752 2.64 3.752h2.931c.194 0 .291.097.291.29v.832c0 .193-.097.31-.271.33-.979.12-1.964.179-2.95.175-3.765 0-4.503-1.064-4.503-5.377 0-4.312.738-5.395 4.503-5.395.985-.005 1.97.052 2.948.17zM57.91 38.849a.099.099 0 0 1 .11.11v1.448c.328-.037.658-.055.987-.052 1.402 0 1.69.429 1.69 2.065s-.29 2.046-1.727 2.046a8.374 8.374 0 0 1-1.542-.125c-.073-.008-.118-.037-.118-.118V38.96a.098.098 0 0 1 .11-.11l.49-.001zm.11 2.127v2.815c.318.038.638.058.957.06.912 0 1.015-.304 1.015-1.434 0-1.156-.11-1.44-1.022-1.44h-.95zM64.833 40.393a.099.099 0 0 1 .111.11v3.561c-.007 1.448-.289 1.87-1.712 1.87a7.478 7.478 0 0 1-1.12-.068.11.11 0 0 1-.103-.118v-.318a.098.098 0 0 1 .11-.11h1.098c.829 0 1.015-.2 1.015-.864v-.045a5.856 5.856 0 0 1-.978.06c-1.402 0-1.698-.422-1.698-2.017v-1.95a.098.098 0 0 1 .111-.11h.482a.099.099 0 0 1 .111.11v1.906c0 1.156.119 1.44 1.038 1.44.312.001.624-.016.934-.052v-3.294a.098.098 0 0 1 .11-.11h.491zM70.92 38.916c.073.007.103.037.103.096v.34c0 .073-.03.11-.096.11H69.26c-.653 0-.972.2-.972.661v.126c0 .369.104.569.557.753l1.616.66c.682.281.852.703.852 1.286v.236c0 1.123-.904 1.285-1.956 1.285-.606.002-1.211-.032-1.813-.102-.066-.015-.088-.044-.088-.118v-.33a.093.093 0 0 1 .103-.103h2.031c.653 0 .964-.185.964-.65v-.14c0-.376-.103-.612-.563-.797l-1.757-.71c-.58-.22-.697-.694-.697-1.255v-.178c0-1.123.882-1.278 1.942-1.278.618-.003.84.034 1.44.108zM74.849 40.423a.112.112 0 0 1 .103.126v.317a.098.098 0 0 1-.11.111h-1.12c-.897 0-1.009.288-1.009 1.44 0 1.153.112 1.436 1.009 1.436h1.12a.099.099 0 0 1 .11.11v.318a.111.111 0 0 1-.103.126c-.374.046-.75.068-1.127.066-1.438 0-1.72-.406-1.72-2.054 0-1.647.282-2.065 1.72-2.065.377 0 .753.022 1.127.069zM76.324 38.849a.099.099 0 0 1 .111.11v1.433c.313-.028.627-.04.942-.037 1.326 0 1.72.165 1.72 1.729v2.238a.098.098 0 0 1-.112.11h-.489a.099.099 0 0 1-.11-.11v-2.178c0-1.13-.223-1.174-.935-1.174h-1.015v3.354a.098.098 0 0 1-.111.11h-.493a.099.099 0 0 1-.111-.11V38.96a.098.098 0 0 1 .11-.11l.493-.001zM83.41 42.417c0 1.648-.288 2.054-1.719 2.054-1.43 0-1.727-.406-1.727-2.054 0-1.647.297-2.064 1.727-2.064 1.43 0 1.72.417 1.72 2.064zm-1.963-3.006c0 .295-.149.45-.445.45-.297 0-.46-.155-.46-.45 0-.296.165-.437.46-.437.294 0 .445.148.445.437zm-.771 3.006c0 1.145.111 1.433 1.015 1.433.904 0 1.009-.288 1.009-1.433 0-1.144-.111-1.44-1.009-1.44-.897 0-1.015.288-1.015 1.44zm2.155-3.006c0 .295-.156.45-.453.45-.296 0-.452-.155-.452-.45 0-.296.156-.437.452-.437.297 0 .455.148.455.437h-.002zM87.674 42.085v2.238c0 .073-.052.11-.126.11h-.474a.099.099 0 0 1-.111-.11v-2.179c0-1.13-.222-1.167-.934-1.167h-1.015v3.347a.098.098 0 0 1-.111.11h-.49a.099.099 0 0 1-.11-.11v-3.732c0-.095.037-.103.11-.118a8.44 8.44 0 0 1 1.543-.118c1.324 0 1.718.163 1.718 1.729zM94.123 38.842c.134 0 .134.066.067.14l-2.202 2.454 2.364 2.8c.067.088.074.199-.126.199h-.58a.18.18 0 0 1-.166-.083l-2.29-2.747v2.719a.098.098 0 0 1-.109.107h-.534a.099.099 0 0 1-.11-.11v-5.369a.098.098 0 0 1 .11-.11h.534a.099.099 0 0 1 .111.11v2.32l2.172-2.356a.198.198 0 0 1 .156-.074h.603zM95.546 38.842a.099.099 0 0 1 .111.111v5.368a.098.098 0 0 1-.11.11h-.488a.099.099 0 0 1-.11-.11v-5.368a.098.098 0 0 1 .11-.11h.487zM97.474 39.211c0 .281-.148.437-.437.437-.29 0-.438-.156-.438-.437 0-.28.156-.428.438-.428.281 0 .437.148.437.428zm-.193 1.182a.099.099 0 0 1 .111.11v3.82a.098.098 0 0 1-.111.11h-.489a.099.099 0 0 1-.111-.11v-3.82a.098.098 0 0 1 .111-.11h.489zM101.781 42.085v2.238c0 .073-.052.11-.126.11h-.474a.099.099 0 0 1-.11-.11v-2.179c0-1.13-.223-1.167-.935-1.167H99.12v3.347a.098.098 0 0 1-.111.11h-.489a.099.099 0 0 1-.111-.11v-3.732c0-.095.037-.103.111-.118a8.44 8.44 0 0 1 1.542-.118c1.326 0 1.72.163 1.72 1.729zM103.567 39.211c0 .281-.148.437-.437.437-.29 0-.438-.156-.438-.437 0-.28.156-.428.438-.428.281 0 .437.148.437.428zm-.193 1.182a.099.099 0 0 1 .111.11v3.82a.098.098 0 0 1-.11.11h-.49a.099.099 0 0 1-.11-.11v-3.82a.098.098 0 0 1 .11-.11h.49zM105.11 38.849a.104.104 0 0 1 .11.118v2.86l1.216-1.36a.198.198 0 0 1 .156-.074h.615c.134 0 .141.067.066.14l-1.312 1.448 1.74 2.253c.067.089.075.2-.125.2h-.519a.207.207 0 0 1-.166-.082l-1.675-2.201v2.164c0 .083-.037.118-.11.118h-.49c-.073 0-.11-.037-.11-.118v-5.347a.103.103 0 0 1 .11-.118l.494-.001z"/>
    </g>
</svg>
